<svg viewBox="0 0 512 512" xmlns="http://www.w3.org/2000/svg"><path d="m512 256c0 141.386719-114.613281 256-256 256s-256-114.613281-256-256 114.613281-256 256-256 256 114.613281 256 256zm0 0" fill="#f50"/><path d="m512 256c0-10.25-.621094-20.351562-1.792969-30.285156l-114.703125-114.703125-313.171875 224.925781 56.894531 56.894531-10.015624 11.078125s65.675781 65.109375 107.945312 107.398438c6.222656.453125 12.503906.691406 18.84375.691406 141.386719 0 256-114.613281 256-256zm0 0" fill="#e82e10"/><path d="m372.191406 139.054688h-289.859375v196.882812h46.878907v67.972656l67.972656-67.972656h175.007812zm0 0" fill="#414952"/><path d="m227.726562 139.054688h144.464844v196.882812h-144.464844zm0 0" fill="#333940"/><path d="m135.273438 184.808594h183.980468v20.082031h-183.980468zm0 0" fill="#7e8596"/><path d="m227.726562 184.808594h91.523438v20.082031h-91.523438zm0 0" fill="#707789"/><path d="m135.273438 228.769531h183.980468v20.078125h-183.980468zm0 0" fill="#7e8596"/><path d="m227.726562 228.769531h91.523438v20.078125h-91.523438zm0 0" fill="#707789"/><path d="m135.273438 272.726562h183.980468v20.082032h-183.980468zm0 0" fill="#7e8596"/><path d="m227.726562 272.726562h91.523438v20.082032h-91.523438zm0 0" fill="#707789"/><path d="m408.960938 130.320312c-12.058594-28.597656-45.015626-42.007812-73.613282-29.949218s-42.007812 45.015625-29.949218 73.613281c12.058593 28.597656 45.015624 42.007813 73.613281 29.949219 28.597656-12.058594 42.007812-45.015625 29.949219-73.613282zm0 0" fill="#1ad635"/><path d="m408.980469 130.316406c-9.183594-21.785156-30.496094-34.738281-52.765625-34.355468v112.378906c7.601562.136718 15.359375-1.261719 22.816406-4.40625 28.601562-12.058594 42.007812-45.019532 29.949219-73.617188zm0 0" fill="#1cb71c"/></svg>