<?xml version="1.0" encoding="UTF-8"?>
<svg xmlns="http://www.w3.org/2000/svg" xmlns:xlink="http://www.w3.org/1999/xlink" width="512" height="512" viewBox="0 0 34 58" version="1.1"><!-- Generator: Sketch 51.3 (57544) - http://www.bohemiancoding.com/sketch --><title>032 - Screen reader mobile</title><desc>Created with Sketch.</desc><defs/><g id="Page-1" stroke="none" stroke-width="1" fill="none" fill-rule="evenodd"><g id="032---Screen-reader-mobile" fill-rule="nonzero"><path d="M34,43 L34,55 C34.0010634,55.795975 33.6853344,56.5596548 33.1224946,57.1224946 C32.5596548,57.6853344 31.795975,58.0010634 31,58 L3,58 C2.204025,58.0010634 1.44034523,57.6853344 0.87750541,57.1224946 C0.314665587,56.5596548 -0.00106342828,55.795975 -1.77635684e-15,55 L-1.77635684e-15,3 C-0.00106342828,2.204025 0.314665587,1.44034523 0.87750541,0.87750541 C1.44034523,0.314665587 2.204025,-0.00106342828 3,-1.80851021e-15 L31,-1.80851021e-15 C31.795975,-0.00106342828 32.5596548,0.314665587 33.1224946,0.87750541 C33.6853344,1.44034523 34.0010634,2.204025 34,3 L34,43 Z" id="Shape" fill="#B0D3F0"/><path d="M0,46 L34,46 L34,55 C34,56.6568542 32.6568542,58 31,58 L3,58 C1.34314575,58 0,56.6568542 0,55 L0,46 Z" id="Shape" fill="#3B97D3"/><path d="M34,3 L34.0000027,46 L17,46 L17,-2.67766546e-06 L31,-1.81018479e-15 C31.795975,-0.00106342828 32.5596548,0.314665587 33.1224946,0.87750541 C33.6853344,1.44034523 34.0010634,2.204025 34,3 Z" id="Shape" fill="#90BAE1"/><path d="M34.0000027,46 L34,55 C34.0010634,55.795975 33.6853344,56.5596548 33.1224946,57.1224946 C32.5596548,57.6853344 31.795975,58.0010634 31,58 L17,58.0000027 L17,46 L34.0000027,46 Z" id="Shape" fill="#2980BA"/><polygon id="Shape" fill="#B49ACA" points="13 23 6 23 4 17 16 17"/><polygon id="Shape" fill="#B49ACA" points="28 23 21 23 18 17 30 17"/><path d="M19,5 L15,5 C14.4477153,5 14,4.55228475 14,4 C14,3.44771525 14.4477153,3 15,3 L19,3 C19.5522847,3 20,3.44771525 20,4 C20,4.55228475 19.5522847,5 19,5 Z" id="Shape" fill="#35495E"/><path d="M22,5 C21.7339647,5.00270108 21.4780384,4.89821183 21.2899133,4.71008674 C21.1017882,4.52196165 20.9972989,4.26603534 21,4 C21.0026249,3.54863325 21.3072967,3.1549779 21.7435818,3.03924494 C22.179867,2.92351199 22.6395987,3.11439473 22.8656028,3.50511327 C23.0916069,3.89583182 23.0278509,4.38951656 22.71,4.71 C22.5181592,4.89241381 22.2646908,4.99594314 22,5 Z" id="Shape" fill="#35495E"/><circle id="Oval" fill="#2C3E50" cx="17" cy="52" r="2"/><path d="M13,24 L6,24 C5.56960913,24.0000319 5.18747567,23.7246799 5.0513,23.3164 L3.0513,17.3164 C2.94981894,17.0114368 3.00102556,16.6762879 3.18894017,16.4155408 C3.37685478,16.1547936 3.67859539,16.000199 4,16 L16,16 C16.3466154,15.9999598 16.6685323,16.1794137 16.8507617,16.4742606 C17.0329911,16.7691076 17.0495411,17.1372927 16.8945,17.4473 L13.8945,23.4473 C13.7250721,23.7860739 13.378779,24.0000439 13,24 Z M6.7207,22 L12.3818,22 L14.3818,18 L5.3872,18 L6.7207,22 Z" id="Shape" fill="#894B9D"/><path d="M28,24 L21,24 C20.621221,24.0000439 20.2749279,23.7860739 20.1055,23.4473 L17.1055,17.4473 C16.9504589,17.1372927 16.9670089,16.7691076 17.1492383,16.4742606 C17.3314677,16.1794137 17.6533846,15.9999598 18,16 L30,16 C30.3214046,16.000199 30.6231452,16.1547936 30.8110598,16.4155408 C30.9989744,16.6762879 31.0501811,17.0114368 30.9487,17.3164 L28.9487,23.3164 C28.8125243,23.7246799 28.4303909,24.0000319 28,24 Z M21.6182,22 L27.2793,22 L28.6128,18 L19.6182,18 L21.6182,22 Z" id="Shape" fill="#894B9D"/><path d="M19,18 L15,18 C14.4477153,18 14,17.5522847 14,17 C14,16.4477153 14.4477153,16 15,16 L19,16 C19.5522847,16 20,16.4477153 20,17 C20,17.5522847 19.5522847,18 19,18 Z" id="Shape" fill="#894B9D"/><path d="M4.001,18 C3.55623774,18.0003494 3.16469642,17.7069113 3.04019407,17.2799303 C2.91569173,16.8529493 3.08815383,16.3950549 3.4634,16.1563 L11.9326,10.7671 C12.7475259,10.2484017 13.7803343,10.2149432 14.6271234,10.679809 C15.4739125,11.1446749 16.0001349,12.034002 16,13 C16,13.5522847 15.5522847,14 15,14 C14.4477153,14 14,13.5522847 14,13 C14.0000822,12.7639797 13.8715197,12.5466769 13.6646153,12.4331158 C13.4577109,12.3195547 13.2053599,12.3277902 13.0063,12.4546 L4.5363,17.8438 C4.37644615,17.9459212 4.19068917,18.0001249 4.001,18 Z" id="Shape" fill="#894B9D"/><path d="M29.999,18 C29.8092088,18.0001822 29.6233398,17.9459762 29.4634,17.8438 L20.9941,12.4546 C20.795,12.3277172 20.5425724,12.3194363 20.3355847,12.4329974 C20.128597,12.5465585 19.9999579,12.7639067 20,13 C20,13.5522847 19.5522847,14 19,14 C18.4477153,14 18,13.5522847 18,13 C17.9998819,12.0338964 18.5261948,11.1444866 19.3731006,10.6796138 C20.2200064,10.214741 21.2529298,10.2482747 22.0679,10.7671 L30.5366,16.1563 C30.9118462,16.3950549 31.0843083,16.8529493 30.9598059,17.2799303 C30.8353036,17.7069113 30.4437623,18.0003494 29.999,18 Z" id="Shape" fill="#894B9D"/><path d="M5,30 L4,30 C3.44771525,30 3,29.5522847 3,29 C3,28.4477153 3.44771525,28 4,28 L5,28 C5.55228475,28 6,28.4477153 6,29 C6,29.5522847 5.55228475,30 5,30 Z" id="Shape" fill="#35495E"/><path d="M16,30 L9,30 C8.44771525,30 8,29.5522847 8,29 C8,28.4477153 8.44771525,28 9,28 L16,28 C16.5522847,28 17,28.4477153 17,29 C17,29.5522847 16.5522847,30 16,30 Z" id="Shape" fill="#35495E"/><path d="M30,30 L20,30 C19.4477153,30 19,29.5522847 19,29 C19,28.4477153 19.4477153,28 20,28 L30,28 C30.5522847,28 31,28.4477153 31,29 C31,29.5522847 30.5522847,30 30,30 Z" id="Shape" fill="#35495E"/><path d="M30,38 L29,38 C28.4477153,38 28,37.5522847 28,37 C28,36.4477153 28.4477153,36 29,36 L30,36 C30.5522847,36 31,36.4477153 31,37 C31,37.5522847 30.5522847,38 30,38 Z" id="Shape" fill="#35495E"/><path d="M25,38 L18,38 C17.4477153,38 17,37.5522847 17,37 C17,36.4477153 17.4477153,36 18,36 L25,36 C25.5522847,36 26,36.4477153 26,37 C26,37.5522847 25.5522847,38 25,38 Z" id="Shape" fill="#35495E"/><path d="M14,38 L4,38 C3.44771525,38 3,37.5522847 3,37 C3,36.4477153 3.44771525,36 4,36 L14,36 C14.5522847,36 15,36.4477153 15,37 C15,37.5522847 14.5522847,38 14,38 Z" id="Shape" fill="#35495E"/><path d="M14,34 L4,34 C3.44771525,34 3,33.5522847 3,33 C3,32.4477153 3.44771525,32 4,32 L14,32 C14.5522847,32 15,32.4477153 15,33 C15,33.5522847 14.5522847,34 14,34 Z" id="Shape" fill="#35495E"/><path d="M30,34 L18,34 C17.4477153,34 17,33.5522847 17,33 C17,32.4477153 17.4477153,32 18,32 L30,32 C30.5522847,32 31,32.4477153 31,33 C31,33.5522847 30.5522847,34 30,34 Z" id="Shape" fill="#35495E"/></g></g></svg>
