<?xml version="1.0" encoding="UTF-8" standalone="no"?>
<!DOCTYPE svg PUBLIC "-//W3C//DTD SVG 1.1//EN"
 "http://www.w3.org/Graphics/SVG/1.1/DTD/svg11.dtd">
<!-- Generated by graphviz version 2.40.1 (20161225.0304)
 -->
<!-- Title: dependencies Pages: 1 -->
<svg width="2604pt" height="284pt"
 viewBox="0.00 0.00 2604.00 284.00" xmlns="http://www.w3.org/2000/svg" xmlns:xlink="http://www.w3.org/1999/xlink">
<g id="graph0" class="graph" transform="scale(1 1) rotate(0) translate(4 280)">
<title>dependencies</title>
<polygon fill="#ffffff" stroke="transparent" points="-4,4 -4,-280 2600,-280 2600,4 -4,4"/>
<text text-anchor="start" x="1277.0091" y="-42.4" font-family="sans-serif" font-weight="bold" font-size="14.00" fill="#000000">Legend</text>
<polygon fill="#ffffb3" stroke="transparent" points="1064,-10 1064,-30 1084,-30 1084,-10 1064,-10"/>
<text text-anchor="start" x="1087.629" y="-15.4" font-family="sans-serif" font-size="14.00" fill="#000000"> &#160;Declarations</text>
<polygon fill="#8dd3c7" stroke="transparent" points="1177,-10 1177,-30 1197,-30 1197,-10 1177,-10"/>
<text text-anchor="start" x="1200.7251" y="-15.4" font-family="sans-serif" font-size="14.00" fill="#000000"> &#160;Module</text>
<polygon fill="#80b1d3" stroke="transparent" points="1263,-10 1263,-30 1283,-30 1283,-10 1263,-10"/>
<text text-anchor="start" x="1286.7812" y="-15.4" font-family="sans-serif" font-size="14.00" fill="#000000"> &#160;Bootstrap</text>
<polygon fill="#fdb462" stroke="transparent" points="1360,-10 1360,-30 1380,-30 1380,-10 1360,-10"/>
<text text-anchor="start" x="1383.6732" y="-15.4" font-family="sans-serif" font-size="14.00" fill="#000000"> &#160;Providers</text>
<polygon fill="#fb8072" stroke="transparent" points="1456,-10 1456,-30 1476,-30 1476,-10 1456,-10"/>
<text text-anchor="start" x="1479.7258" y="-15.4" font-family="sans-serif" font-size="14.00" fill="#000000"> &#160;Exports</text>
<g id="clust1" class="cluster">
<title>cluster_AppModule</title>
<polygon fill="none" stroke="#000000" stroke-dasharray="1,5" points="8,-70 8,-268 2588,-268 2588,-70 8,-70"/>
</g>
<g id="clust2" class="cluster">
<title>cluster_AppModule_declarations</title>
<polygon fill="none" stroke="#000000" points="168,-78 168,-130 2580,-130 2580,-78 168,-78"/>
</g>
<g id="clust18" class="cluster">
<title>cluster_AppModule_imports</title>
<polygon fill="none" stroke="#000000" points="16,-78 16,-130 160,-130 160,-78 16,-78"/>
</g>
<g id="clust20" class="cluster">
<title>cluster_AppModule_bootstrap</title>
<polygon fill="none" stroke="#000000" points="1241,-208 1241,-260 1365,-260 1365,-208 1241,-208"/>
</g>
<!-- AdministracionComponent -->
<g id="node1" class="node">
<title>AdministracionComponent</title>
<polygon fill="#ffffb3" stroke="#000000" points="2572.4269,-122 2403.5731,-122 2403.5731,-86 2572.4269,-86 2572.4269,-122"/>
<text text-anchor="middle" x="2488" y="-99.8" font-family="Times,serif" font-size="14.00" fill="#000000">AdministracionComponent</text>
</g>
<!-- AppModule -->
<g id="node16" class="node">
<title>AppModule</title>
<polygon fill="#8dd3c7" stroke="#000000" points="1344.6571,-187 1341.6571,-191 1320.6571,-191 1317.6571,-187 1261.3429,-187 1261.3429,-151 1344.6571,-151 1344.6571,-187"/>
<text text-anchor="middle" x="1303" y="-164.8" font-family="Times,serif" font-size="14.00" fill="#000000">AppModule</text>
</g>
<!-- AdministracionComponent&#45;&gt;AppModule -->
<g id="edge1" class="edge">
<title>AdministracionComponent&#45;&gt;AppModule</title>
<path fill="none" stroke="#000000" d="M2488,-122.3228C2488,-145.6602 2488,-183 2488,-183 2488,-183 1354.8267,-183 1354.8267,-183"/>
<polygon fill="#000000" stroke="#000000" points="1354.8267,-179.5001 1344.8267,-183 1354.8267,-186.5001 1354.8267,-179.5001"/>
</g>
<!-- AmigosComponent -->
<g id="node2" class="node">
<title>AmigosComponent</title>
<polygon fill="#ffffb3" stroke="#000000" points="2385.6652,-122 2260.3348,-122 2260.3348,-86 2385.6652,-86 2385.6652,-122"/>
<text text-anchor="middle" x="2323" y="-99.8" font-family="Times,serif" font-size="14.00" fill="#000000">AmigosComponent</text>
</g>
<!-- AmigosComponent&#45;&gt;AppModule -->
<g id="edge2" class="edge">
<title>AmigosComponent&#45;&gt;AppModule</title>
<path fill="none" stroke="#000000" d="M2323,-122.2921C2323,-144.2057 2323,-178 2323,-178 2323,-178 1354.8868,-178 1354.8868,-178"/>
<polygon fill="#000000" stroke="#000000" points="1354.8868,-174.5001 1344.8868,-178 1354.8868,-181.5001 1354.8868,-174.5001"/>
</g>
<!-- AppComponent -->
<g id="node3" class="node">
<title>AppComponent</title>
<polygon fill="#ffffb3" stroke="#000000" points="2241.9399,-122 2136.0601,-122 2136.0601,-86 2241.9399,-86 2241.9399,-122"/>
<text text-anchor="middle" x="2189" y="-99.8" font-family="Times,serif" font-size="14.00" fill="#000000">AppComponent</text>
</g>
<!-- AppComponent&#45;&gt;AppModule -->
<g id="edge3" class="edge">
<title>AppComponent&#45;&gt;AppModule</title>
<path fill="none" stroke="#000000" d="M2189,-122.0267C2189,-142.7672 2189,-174 2189,-174 2189,-174 1354.8409,-174 1354.8409,-174"/>
<polygon fill="#000000" stroke="#000000" points="1354.841,-170.5001 1344.8409,-174 1354.8409,-177.5001 1354.841,-170.5001"/>
</g>
<!-- BarraNavegacionComponent -->
<g id="node4" class="node">
<title>BarraNavegacionComponent</title>
<polygon fill="#ffffb3" stroke="#000000" points="2118.7752,-122 1939.2248,-122 1939.2248,-86 2118.7752,-86 2118.7752,-122"/>
<text text-anchor="middle" x="2029" y="-99.8" font-family="Times,serif" font-size="14.00" fill="#000000">BarraNavegacionComponent</text>
</g>
<!-- BarraNavegacionComponent&#45;&gt;AppModule -->
<g id="edge4" class="edge">
<title>BarraNavegacionComponent&#45;&gt;AppModule</title>
<path fill="none" stroke="#000000" d="M2029,-122.1061C2029,-141.3391 2029,-169 2029,-169 2029,-169 1354.9053,-169 1354.9053,-169"/>
<polygon fill="#000000" stroke="#000000" points="1354.9053,-165.5001 1344.9053,-169 1354.9053,-172.5001 1354.9053,-165.5001"/>
</g>
<!-- BuscarComponent -->
<g id="node5" class="node">
<title>BuscarComponent</title>
<polygon fill="#ffffb3" stroke="#000000" points="1921.2036,-122 1800.7964,-122 1800.7964,-86 1921.2036,-86 1921.2036,-122"/>
<text text-anchor="middle" x="1861" y="-99.8" font-family="Times,serif" font-size="14.00" fill="#000000">BuscarComponent</text>
</g>
<!-- BuscarComponent&#45;&gt;AppModule -->
<g id="edge5" class="edge">
<title>BuscarComponent&#45;&gt;AppModule</title>
<path fill="none" stroke="#000000" d="M1861,-122.302C1861,-140.2699 1861,-165 1861,-165 1861,-165 1354.9407,-165 1354.9407,-165"/>
<polygon fill="#000000" stroke="#000000" points="1354.9407,-161.5001 1344.9407,-165 1354.9407,-168.5001 1354.9407,-161.5001"/>
</g>
<!-- ChatComponent -->
<g id="node6" class="node">
<title>ChatComponent</title>
<polygon fill="#ffffb3" stroke="#000000" points="1782.7744,-122 1675.2256,-122 1675.2256,-86 1782.7744,-86 1782.7744,-122"/>
<text text-anchor="middle" x="1729" y="-99.8" font-family="Times,serif" font-size="14.00" fill="#000000">ChatComponent</text>
</g>
<!-- ChatComponent&#45;&gt;AppModule -->
<g id="edge6" class="edge">
<title>ChatComponent&#45;&gt;AppModule</title>
<path fill="none" stroke="#000000" d="M1729,-122.027C1729,-138.3976 1729,-160 1729,-160 1729,-160 1355.0124,-160 1355.0124,-160"/>
<polygon fill="#000000" stroke="#000000" points="1355.0124,-156.5001 1345.0124,-160 1355.0123,-163.5001 1355.0124,-156.5001"/>
</g>
<!-- ConfirmarComponent -->
<g id="node7" class="node">
<title>ConfirmarComponent</title>
<polygon fill="#ffffb3" stroke="#000000" points="1656.647,-122 1517.353,-122 1517.353,-86 1656.647,-86 1656.647,-122"/>
<text text-anchor="middle" x="1587" y="-99.8" font-family="Times,serif" font-size="14.00" fill="#000000">ConfirmarComponent</text>
</g>
<!-- ConfirmarComponent&#45;&gt;AppModule -->
<g id="edge7" class="edge">
<title>ConfirmarComponent&#45;&gt;AppModule</title>
<path fill="none" stroke="#000000" d="M1587,-122.1871C1587,-137.1824 1587,-156 1587,-156 1587,-156 1354.9052,-156 1354.9052,-156"/>
<polygon fill="#000000" stroke="#000000" points="1354.9052,-152.5001 1344.9052,-156 1354.9051,-159.5001 1354.9052,-152.5001"/>
</g>
<!-- ContenidoUsuarioComponent -->
<g id="node8" class="node">
<title>ContenidoUsuarioComponent</title>
<polygon fill="#ffffb3" stroke="#000000" points="1498.9818,-122 1315.0182,-122 1315.0182,-86 1498.9818,-86 1498.9818,-122"/>
<text text-anchor="middle" x="1407" y="-99.8" font-family="Times,serif" font-size="14.00" fill="#000000">ContenidoUsuarioComponent</text>
</g>
<!-- ContenidoUsuarioComponent&#45;&gt;AppModule -->
<g id="edge8" class="edge">
<title>ContenidoUsuarioComponent&#45;&gt;AppModule</title>
<path fill="none" stroke="#000000" d="M1329.9187,-122.1061C1329.9187,-122.1061 1329.9187,-140.991 1329.9187,-140.991"/>
<polygon fill="#000000" stroke="#000000" points="1326.4187,-140.9909 1329.9187,-150.991 1333.4187,-140.991 1326.4187,-140.9909"/>
</g>
<!-- InformacionUsuarioComponent -->
<g id="node9" class="node">
<title>InformacionUsuarioComponent</title>
<polygon fill="#ffffb3" stroke="#000000" points="1297.3417,-122 1102.6583,-122 1102.6583,-86 1297.3417,-86 1297.3417,-122"/>
<text text-anchor="middle" x="1200" y="-99.8" font-family="Times,serif" font-size="14.00" fill="#000000">InformacionUsuarioComponent</text>
</g>
<!-- InformacionUsuarioComponent&#45;&gt;AppModule -->
<g id="edge9" class="edge">
<title>InformacionUsuarioComponent&#45;&gt;AppModule</title>
<path fill="none" stroke="#000000" d="M1279.2963,-122.1061C1279.2963,-122.1061 1279.2963,-140.991 1279.2963,-140.991"/>
<polygon fill="#000000" stroke="#000000" points="1275.7964,-140.9909 1279.2963,-150.991 1282.7964,-140.991 1275.7964,-140.9909"/>
</g>
<!-- LoginComponent -->
<g id="node10" class="node">
<title>LoginComponent</title>
<polygon fill="#ffffb3" stroke="#000000" points="1084.2758,-122 969.7242,-122 969.7242,-86 1084.2758,-86 1084.2758,-122"/>
<text text-anchor="middle" x="1027" y="-99.8" font-family="Times,serif" font-size="14.00" fill="#000000">LoginComponent</text>
</g>
<!-- LoginComponent&#45;&gt;AppModule -->
<g id="edge10" class="edge">
<title>LoginComponent&#45;&gt;AppModule</title>
<path fill="none" stroke="#000000" d="M1027,-122.1871C1027,-137.1824 1027,-156 1027,-156 1027,-156 1251.0815,-156 1251.0815,-156"/>
<polygon fill="#000000" stroke="#000000" points="1251.0816,-159.5001 1261.0815,-156 1251.0815,-152.5001 1251.0816,-159.5001"/>
</g>
<!-- MensajesComponent -->
<g id="node11" class="node">
<title>MensajesComponent</title>
<polygon fill="#ffffb3" stroke="#000000" points="952.2008,-122 817.7992,-122 817.7992,-86 952.2008,-86 952.2008,-122"/>
<text text-anchor="middle" x="885" y="-99.8" font-family="Times,serif" font-size="14.00" fill="#000000">MensajesComponent</text>
</g>
<!-- MensajesComponent&#45;&gt;AppModule -->
<g id="edge11" class="edge">
<title>MensajesComponent&#45;&gt;AppModule</title>
<path fill="none" stroke="#000000" d="M885,-122.027C885,-138.3976 885,-160 885,-160 885,-160 1251.0067,-160 1251.0067,-160"/>
<polygon fill="#000000" stroke="#000000" points="1251.0068,-163.5001 1261.0067,-160 1251.0067,-156.5001 1251.0068,-163.5001"/>
</g>
<!-- NovedadesComponent -->
<g id="node12" class="node">
<title>NovedadesComponent</title>
<polygon fill="#ffffb3" stroke="#000000" points="799.5282,-122 656.4718,-122 656.4718,-86 799.5282,-86 799.5282,-122"/>
<text text-anchor="middle" x="728" y="-99.8" font-family="Times,serif" font-size="14.00" fill="#000000">NovedadesComponent</text>
</g>
<!-- NovedadesComponent&#45;&gt;AppModule -->
<g id="edge12" class="edge">
<title>NovedadesComponent&#45;&gt;AppModule</title>
<path fill="none" stroke="#000000" d="M728,-122.302C728,-140.2699 728,-165 728,-165 728,-165 1251.1842,-165 1251.1842,-165"/>
<polygon fill="#000000" stroke="#000000" points="1251.1843,-168.5001 1261.1842,-165 1251.1842,-161.5001 1251.1843,-168.5001"/>
</g>
<!-- OtrosusuariosComponent -->
<g id="node13" class="node">
<title>OtrosusuariosComponent</title>
<polygon fill="#ffffb3" stroke="#000000" points="638.5898,-122 479.4102,-122 479.4102,-86 638.5898,-86 638.5898,-122"/>
<text text-anchor="middle" x="559" y="-99.8" font-family="Times,serif" font-size="14.00" fill="#000000">OtrosusuariosComponent</text>
</g>
<!-- OtrosusuariosComponent&#45;&gt;AppModule -->
<g id="edge13" class="edge">
<title>OtrosusuariosComponent&#45;&gt;AppModule</title>
<path fill="none" stroke="#000000" d="M559,-122.1061C559,-141.3391 559,-169 559,-169 559,-169 1251.1367,-169 1251.1367,-169"/>
<polygon fill="#000000" stroke="#000000" points="1251.1368,-172.5001 1261.1367,-169 1251.1367,-165.5001 1251.1368,-172.5001"/>
</g>
<!-- PeticionesComponent -->
<g id="node14" class="node">
<title>PeticionesComponent</title>
<polygon fill="#ffffb3" stroke="#000000" points="461.3753,-122 322.6247,-122 322.6247,-86 461.3753,-86 461.3753,-122"/>
<text text-anchor="middle" x="392" y="-99.8" font-family="Times,serif" font-size="14.00" fill="#000000">PeticionesComponent</text>
</g>
<!-- PeticionesComponent&#45;&gt;AppModule -->
<g id="edge14" class="edge">
<title>PeticionesComponent&#45;&gt;AppModule</title>
<path fill="none" stroke="#000000" d="M392,-122.0267C392,-142.7672 392,-174 392,-174 392,-174 1251.1888,-174 1251.1888,-174"/>
<polygon fill="#000000" stroke="#000000" points="1251.1888,-177.5001 1261.1888,-174 1251.1888,-170.5001 1251.1888,-177.5001"/>
</g>
<!-- RegistroComponent -->
<g id="node15" class="node">
<title>RegistroComponent</title>
<polygon fill="#ffffb3" stroke="#000000" points="304.2702,-122 175.7298,-122 175.7298,-86 304.2702,-86 304.2702,-122"/>
<text text-anchor="middle" x="240" y="-99.8" font-family="Times,serif" font-size="14.00" fill="#000000">RegistroComponent</text>
</g>
<!-- RegistroComponent&#45;&gt;AppModule -->
<g id="edge15" class="edge">
<title>RegistroComponent&#45;&gt;AppModule</title>
<path fill="none" stroke="#000000" d="M240,-122.2921C240,-144.2057 240,-178 240,-178 240,-178 1251.3291,-178 1251.3291,-178"/>
<polygon fill="#000000" stroke="#000000" points="1251.3292,-181.5001 1261.3291,-178 1251.3291,-174.5001 1251.3292,-181.5001"/>
</g>
<!-- AppComponent  -->
<g id="node18" class="node">
<title>AppComponent </title>
<polygon fill="#80b1d3" stroke="#000000" points="1357.439,-252 1248.561,-252 1248.561,-216 1357.439,-216 1357.439,-252"/>
<text text-anchor="middle" x="1303" y="-229.8" font-family="Times,serif" font-size="14.00" fill="#000000">AppComponent </text>
</g>
<!-- AppModule&#45;&gt;AppComponent  -->
<g id="edge17" class="edge">
<title>AppModule&#45;&gt;AppComponent </title>
<path fill="none" stroke="#000000" stroke-dasharray="1,5" d="M1303,-187.1061C1303,-187.1061 1303,-205.991 1303,-205.991"/>
<polygon fill="#000000" stroke="#000000" points="1299.5001,-205.9909 1303,-215.991 1306.5001,-205.991 1299.5001,-205.9909"/>
</g>
<!-- AppRoutingModule -->
<g id="node17" class="node">
<title>AppRoutingModule</title>
<polygon fill="#8dd3c7" stroke="#000000" points="152.2744,-122 149.2744,-126 128.2744,-126 125.2744,-122 23.7256,-122 23.7256,-86 152.2744,-86 152.2744,-122"/>
<text text-anchor="middle" x="88" y="-99.8" font-family="Times,serif" font-size="14.00" fill="#000000">AppRoutingModule</text>
</g>
<!-- AppRoutingModule&#45;&gt;AppModule -->
<g id="edge16" class="edge">
<title>AppRoutingModule&#45;&gt;AppModule</title>
<path fill="none" stroke="#000000" d="M88,-122.3228C88,-145.6602 88,-183 88,-183 88,-183 1251.1769,-183 1251.1769,-183"/>
<polygon fill="#000000" stroke="#000000" points="1251.177,-186.5001 1261.1769,-183 1251.1769,-179.5001 1251.177,-186.5001"/>
</g>
</g>
</svg>
